<svg id="a4a975b6-091e-429d-b282-8be56e91c415" data-name="Capa 1" xmlns="http://www.w3.org/2000/svg" viewBox="0 0 150 150"><g id="f47797d5-1a86-4e83-8304-3b2230f165e4" data-name="badc7533-bf18-4482-ac86-9a2be9a1bfee"><path d="M19.16,118.43A14.88,14.88,0,0,0,34,133.32h85.7a14.87,14.87,0,0,0,14.89-14.87V32.75a14.88,14.88,0,0,0-14.87-14.89H34.05A14.88,14.88,0,0,0,19.16,32.73v85.7Z"/><path d="M67,68.93V52.59H81.43a22.35,22.35,0,0,1,4,.34,10,10,0,0,1,3.38,1.23,6.63,6.63,0,0,1,2.35,2.44,8.16,8.16,0,0,1,.88,4Q92,65,89.39,67a11,11,0,0,1-6.75,2ZM51.67,40.59v70H85.54a35.86,35.86,0,0,0,9.16-1.18,24.39,24.39,0,0,0,7.93-3.62,17.72,17.72,0,0,0,5.53-6.32A21.35,21.35,0,0,0,107,79.11a16.87,16.87,0,0,0-9.65-6.52,17.45,17.45,0,0,0,7.1-5.77,15.25,15.25,0,0,0,2.4-8.81,18.66,18.66,0,0,0-1.62-8.23,13.3,13.3,0,0,0-4.55-5.34,19.61,19.61,0,0,0-7-2.88,43.57,43.57,0,0,0-9.11-.89ZM67,98.59V79.41H83.78a13,13,0,0,1,8,2.3c2,1.53,3,4.1,3,7.69a9.58,9.58,0,0,1-.93,4.5,7.38,7.38,0,0,1-2.5,2.79,10.51,10.51,0,0,1-3.62,1.47,20.81,20.81,0,0,1-4.31.44Z" style="fill:#fcf"/></g></svg>