<svg id="aa609ecd-bb3e-4cd8-8c9e-0a955a2839d3" data-name="Capa 1" xmlns="http://www.w3.org/2000/svg" viewBox="0 0 150 150"><rect x="35.53" y="27.66" width="82.72" height="90.38" style="fill:#fcf"/><path d="M31.86,125.9l42.53,12a6.3,6.3,0,0,0,2.8,0l42.86-12a2.24,2.24,0,0,0,1.52-1.83l9.85-110.69a1.3,1.3,0,0,0-1.33-1.45H21.82a1.3,1.3,0,0,0-1.32,1.45l9.84,110.67A2.31,2.31,0,0,0,31.86,125.9ZM42.52,35.14h66.9a1.3,1.3,0,0,1,1.33,1.45l-1,10.92A1.61,1.61,0,0,1,108.16,49H57.85a1.3,1.3,0,0,0-1.33,1.44l.95,11.4A1.59,1.59,0,0,0,59,63.24h48a1.3,1.3,0,0,1,1.33,1.45l-3.68,40.06a2.23,2.23,0,0,1-1.54,1.83l-25.56,7a10.47,10.47,0,0,0-1.4.43s-.07,0-.17,0a15.11,15.11,0,0,1-1.56-.38l-25.8-7.12a2.23,2.23,0,0,1-1.52-1.82L45.58,85.72a1.32,1.32,0,0,1,1.33-1.45H57.83a1.62,1.62,0,0,1,1.59,1.45l.76,8.16a2.23,2.23,0,0,0,1.54,1.83l12.67,3.42a6.3,6.3,0,0,0,2.8,0l12.75-3.44a2.24,2.24,0,0,0,1.54-1.83l1.45-15.12a1.3,1.3,0,0,0-1.31-1.45H46.22a1.61,1.61,0,0,1-1.59-1.44L41.17,36.57A1.34,1.34,0,0,1,42.52,35.14Z"/></svg>