<svg id="e13c424d-7bb9-4167-ba40-5c11d0c68fc7" data-name="Capa 1" xmlns="http://www.w3.org/2000/svg" viewBox="0 0 150 150"><rect x="35.4" y="30.72" width="84.26" height="85.79" style="fill:#fcf"/><path d="M88.58,67.84a10.52,10.52,0,0,0-8.34,4c-2.24,2.63-3.36,6.59-3.36,11.82,0,5.66.78,9.72,2.34,12.25a10.59,10.59,0,0,0,9.46,5.47,10.26,10.26,0,0,0,8.21-4.12c2.24-2.73,3.38-6.82,3.38-12.27q0-9.11-3.28-13.13A10.41,10.41,0,0,0,88.58,67.84Z"/><path d="M78.18,8.31A66.69,66.69,0,1,0,144.87,75,66.69,66.69,0,0,0,78.18,8.31ZM56.87,111.21H42.13v-73H56.87Zm44.37,0v-7.76a20.43,20.43,0,0,1-16.55,9q-9.1,0-15.6-7.35T62.6,84.56q0-13.44,6.33-20.45a20.65,20.65,0,0,1,16-7q8.86,0,15.34,7.38V38.22h14v73Z"/></svg>