<svg id="a1a14c74-e286-4e59-b7ae-5e6ab3527fd5" data-name="Capa 1" xmlns="http://www.w3.org/2000/svg" viewBox="0 0 512 512"><path d="M295.9,228.5c-12.7,0-23.4,5.1-32,15.2S251,269,251,289.1c0,21.7,3,37.3,9,47q13,21,36.3,21c12.4,0,22.9-5.3,31.5-15.8s13-26.2,13-47.1q0-34.95-12.6-50.4C319.8,233.6,309,228.5,295.9,228.5Z" style="fill:#d8bfd8"/><path d="M256,0C114.6,0,0,114.6,0,256S114.6,512,256,512,512,397.4,512,256,397.4,0,256,0ZM174.2,395H117.6V114.8h56.6Zm170.3,0V365.2c-16.8,23.5-40.9,34.4-63.5,34.4q-35,0-59.9-28.2t-24.9-78.7q0-51.6,24.3-78.5c16.2-17.9,36.6-26.9,61.4-26.9q34.05,0,58.9,28.3V114.8h53.7V395Z" style="fill:#d8bfd8"/></svg>