<svg id="b32505ff-e476-45d8-93af-809132854ff3" data-name="Capa 1" xmlns="http://www.w3.org/2000/svg" viewBox="0 0 512 512"><path d="M138.4,180.7v62.6c45.2,0,62.8,1.5,73.6-14.3,7.2-10.5,7-27-2-37C198.6,179.5,186.2,180.7,138.4,180.7Z" style="fill:#d8bfd8"/><path d="M256,0C114.6,0,0,114.6,0,256S114.6,512,256,512,512,397.4,512,256,397.4,0,256,0Zm-.5,245.5a62.7,62.7,0,0,1-41.9,32.2c-19.6,3.9-48.6,3.2-75.3,3.2v83.3H93.8V143.4c73.1,0,109.4-.8,124.5,3.3q18.9,5,31.8,21.6C266.6,189.8,265.9,226,255.5,245.5ZM399.8,351.9c-12.2,10.5-30.4,15.8-54.4,15.8q-32.7,0-51.7-13.3a60.75,60.75,0,0,1-24.9-36l42.5-6.5c4,18,16.1,25.1,34.2,25.1,13.8,0,30.3-3.5,30.3-17.3,0-9.3-7.8-11.4-17.2-13.6-34.1-7.5-55.8-14.4-64.9-20.6-12.6-8.6-19-20.6-19-36,0-13.9,5.5-25.5,16.4-34.9S319,200.4,342,200.4c34.9,0,61,8.4,70.8,42.3l-39.9,7.4c-1.7-6.2-4.9-11-9.7-14.3-10.9-7.6-35.9-5.7-44.3-.3-6,4.1-6.7,11.7-.6,16.3,12.3,9,64.6,12.3,86.7,30.7,8.8,7.5,13.3,18,13.3,31.5C418.2,328.8,412.1,341.4,399.8,351.9Z" style="fill:#d8bfd8"/></svg>