<svg id="b9927c32-20b3-49fe-b5c7-6ed84de60d77" data-name="Capa 1" xmlns="http://www.w3.org/2000/svg" viewBox="0 0 150 150"><rect x="29.19" y="32.26" width="91.91" height="84.26" style="fill:#fcf"/><path d="M44.37,55.38V71.69c11.77,0,16.35.39,19.17-3.72A8.17,8.17,0,0,0,63,58.33C60.05,55.07,56.82,55.38,44.37,55.38Z"/><path d="M75,8.31A66.69,66.69,0,1,0,141.69,75,66.69,66.69,0,0,0,75,8.31Zm-.13,64A16.34,16.34,0,0,1,64,80.65c-5.1,1-12.66.84-19.61.84v21.7H32.75V45.67c19,0,28.5-.21,32.43.86a15.27,15.27,0,0,1,8.28,5.62C77.76,57.75,77.58,67.19,74.87,72.26ZM112.46,100c-3.18,2.74-7.92,4.12-14.17,4.12q-8.52,0-13.47-3.47a15.86,15.86,0,0,1-6.49-9.37l11.08-1.7c1,4.69,4.19,6.54,8.9,6.54,3.6,0,7.9-.91,7.9-4.51,0-2.42-2-3-4.48-3.54-8.89-2-14.54-3.75-16.91-5.37a10.74,10.74,0,0,1-4.95-9.37,11.52,11.52,0,0,1,4.27-9.09c2.84-2.45,7.27-3.7,13.26-3.7,9.09,0,15.89,2.18,18.45,11l-10.4,1.92a6.37,6.37,0,0,0-2.52-3.72c-2.84-2-9.36-1.49-11.54-.08a2.5,2.5,0,0,0-.16,4.25c3.2,2.34,16.83,3.2,22.58,8a10.21,10.21,0,0,1,3.47,8.21A12.66,12.66,0,0,1,112.46,100Z"/></svg>