<svg id="ece83687-5471-4dc3-a72a-724ee608326c" data-name="Capa 1" xmlns="http://www.w3.org/2000/svg" viewBox="0 0 150 150"><g id="a29b4846-b4a4-413d-af34-b51d585d6816" data-name="f675dfbb-faa2-40fd-bc09-bab922395dae"><path d="M133.7,75c0,1.85-.09,3.68-.25,5.49-.13,1.44-.31,2.85-.54,4.25A60,60,0,1,1,133.7,75Z"/><path d="M118.39,81.75c-1.82.69-1.74.7-2.7-1a15.12,15.12,0,0,1-1.94-7.14,16.65,16.65,0,0,1,1.3-6.22c.61-1.59-.18-2.15-1.55-2.3a16.7,16.7,0,0,0-3,0c-2.61.27-2.87.5-3.56,3a25.51,25.51,0,0,1-1.42,4.44c-1.69,3.52-3.6,6.9-5.56,10.26a8.67,8.67,0,0,1-1.15,1.77,13.22,13.22,0,0,1-2.07-7,17.86,17.86,0,0,1,1.44-6.94,1.08,1.08,0,0,0-.44-1.47L97.58,69a2.74,2.74,0,0,0-.93-.3,14.27,14.27,0,0,0-5,.35,1.72,1.72,0,0,0-1.37,1.43,21.89,21.89,0,0,1-1.49,4.69L83.22,87.73C81.61,91.36,80,95,78.1,98.49c-.13.25-.25.67-.58.59s-.23-.51-.24-.8a20.75,20.75,0,0,1,.93-6c.75-3.1,1.58-6.2,2.38-9.29a1.59,1.59,0,0,0-.89-1.92,2.75,2.75,0,0,0-3.26.22,21.25,21.25,0,0,0,.17-3.48c-.12-2.47-1.27-4.08-3.26-4.45a6.77,6.77,0,0,0-4.14.76,21,21,0,0,0-7.53,6.24,2.54,2.54,0,0,1-.83.77L49.31,87.45a.7.7,0,0,1-1-.15h0a53.49,53.49,0,0,0-6.4-5.52,70.72,70.72,0,0,1-9-7.66,15,15,0,0,1-3.53-5.86A13.45,13.45,0,0,1,30.87,58a31.26,31.26,0,0,1,8.66-9.55A84.14,84.14,0,0,1,57.3,38c7.07-3,14.4-5,22.21-4.79a19.66,19.66,0,0,1,8.86,2.18A6.58,6.58,0,0,1,92,40.29a12,12,0,0,1-1.4,7.46c-2.64,5.21-6.84,8.9-11.8,11.79a38.78,38.78,0,0,1-13.31,4.74,24.29,24.29,0,0,1-7.84.31c-3-.46-5.79-1.47-7.85-3.89a.76.76,0,0,0-.94-.28c-.42.2-.38.57-.34.92a2.92,2.92,0,0,0,.18.72,8.4,8.4,0,0,0,2.78,3.59C54.6,68.2,58.32,69,62.23,69a44.36,44.36,0,0,0,11.3-1.3c8.4-2,15.44-6.13,20.57-13.19,3.07-4.22,5-8.87,4.85-14.19a12.45,12.45,0,0,0-3.71-8.79,21,21,0,0,0-10.45-5.19,39.27,39.27,0,0,0-13.15-.57,55.14,55.14,0,0,0-11.27,2.51,101,101,0,0,0-16.2,7.19A69.61,69.61,0,0,0,29.48,46.06c-3.89,3.75-7.22,7.89-9.1,13a11.87,11.87,0,0,0-.84,6.83A19.15,19.15,0,0,0,23.72,74a53.58,53.58,0,0,0,10.47,9.19c3,2.19,6.24,4.18,9.16,6.54.83.66.83.66-.15,1.17-1.14.6-2.29,1.17-3.41,1.8-4.52,2.56-8.89,5.33-12.46,9.18a14,14,0,0,0-3.5,6.39A59.31,59.31,0,0,0,34.09,120c6.66-.52,11.76-4,15.53-9.72a19.92,19.92,0,0,0,3-9.2,21.75,21.75,0,0,0-.87-8.52c-.15-.49-.71-1-.49-1.4s.81-.6,1.27-.86c1.81-1.06,3.63-2.1,5.5-3.17a1.59,1.59,0,0,1-.14.89c-1.07,3.93-1.82,7.9-1,12a16.8,16.8,0,0,0,3,7,4.54,4.54,0,0,0,6.41.4,5,5,0,0,0,.45-.47,33,33,0,0,0,3.35-6.11c.54-1.16,1-2.33,1.55-3.5a35.74,35.74,0,0,0,0,4.14,8,8,0,0,0,1,3.87,2.84,2.84,0,0,0,3.85,1.12l0,0a8.61,8.61,0,0,0,3.43-3.57,165.17,165.17,0,0,0,9.51-19.12c.58-1.4,1.17-2.8,1.83-4.36l.22,1.14a30.1,30.1,0,0,0,3.23,8.92A1.27,1.27,0,0,1,94.6,91c-1.43,1.94-3,3.77-4.55,5.63a50.46,50.46,0,0,0-3.78,4.75c-1,1.55-.42,3.13,1.22,3.48A6.72,6.72,0,0,0,89,105a16.33,16.33,0,0,0,8-2.29c3.31-1.89,5.27-4.65,5.18-8.59A13.4,13.4,0,0,0,101,89a.88.88,0,0,1,.07-1,93.08,93.08,0,0,0,6.19-10.28,8.75,8.75,0,0,1,1.1-1.92c.07.25.12.4.15.56a27.89,27.89,0,0,0,2.89,8.43c.41.72.21,1.08-.36,1.56a22.62,22.62,0,0,0-4.9,5.82,11,11,0,0,0-1.69,5.6,3,3,0,0,0,3.92,3,17.35,17.35,0,0,0,6.32-2.87c4.15-3,5.37-6.24,4.07-10.72-.51-1.76-.5-1.73,1.26-2.26a25.66,25.66,0,0,1,11.72-.57c.44.07.88.15,1.32.25.23-1.4.41-2.81.54-4.25A25.08,25.08,0,0,0,118.39,81.75ZM36.82,113.24a8,8,0,0,1-3.47.47A2.67,2.67,0,0,1,30.83,111a10,10,0,0,1,1.22-5c1.45-2.89,3.87-4.85,6.34-6.77a74.71,74.71,0,0,1,7.59-5c.79-.47.8-.46,1,.48a13.51,13.51,0,0,1,.37,3.52C47.54,104.73,42.75,111.14,36.82,113.24ZM72.75,80a39.74,39.74,0,0,1-2.29,8c-1.32,3.57-2.6,7.15-4.26,10.59a8.13,8.13,0,0,1-1.39,2.22c-.58.61-1.09.54-1.49-.21a10.66,10.66,0,0,1-.82-4.25,24.5,24.5,0,0,1,5.28-15,6.6,6.6,0,0,1,3.61-2.58C72.43,78.5,72.92,79,72.75,80ZM95.57,97.41a10.92,10.92,0,0,1-4.7,4.33c-.21.11-.48.29-.67.05s.11-.39.24-.54a80.18,80.18,0,0,0,5.64-6.62.47.47,0,0,0,.24-.11,5.67,5.67,0,0,1-.75,2.93Zm13.54-.08c-.29.14-.63.39-.92.17s-.18-.67-.09-1A18.58,18.58,0,0,1,110,92.24a16.72,16.72,0,0,1,2.51-3c.38-.37.55-.32.68.21a6.94,6.94,0,0,1,.16,1.63,6.61,6.61,0,0,1-4.21,6.29Z" style="fill:#fcf"/></g></svg>